<?xml version="1.0" encoding="UTF-8" standalone="no"?><!DOCTYPE svg PUBLIC "-//W3C//DTD SVG 1.1//EN" "http://www.w3.org/Graphics/SVG/1.1/DTD/svg11.dtd"><svg width="100%" height="100%" viewBox="0 0 600 600" version="1.1" xmlns="http://www.w3.org/2000/svg" xmlns:xlink="http://www.w3.org/1999/xlink" xml:space="preserve" xmlns:serif="http://www.serif.com/" style="fill-rule:evenodd;clip-rule:evenodd;stroke-linejoin:round;stroke-miterlimit:2;"><path id="Sektor5" d="M405.874,496.292l-10.952,-10.951l-1.148,-0l-0,2.615l-9.578,9.578l-0,11.698l13.948,0l0,-4.099l7.73,-7.729l-0,-1.112Zm-52.364,-30.132l-0,-10.661l12.401,-12.401l10.476,-0l0,9.931c0,-0 -10.635,10.635 -10.635,10.635l-0,2.929l6.44,0l0,17.044l4.144,4.147l-0,-10.695l7.883,-0l-0,-0.872c-0,0 7.14,0 7.14,0l2.544,-2.543l-0,-6.812l34.048,-34.048l-0,-35.962l13.029,0l3.681,14.943l16.043,16.043l3.265,3.258l11.67,-0l20.326,-20.327l25.839,25.84l9.121,-9.121l-4.072,-4.072l0,-16.629l-12.028,-12.036l0,-0.024l-0.382,-0.383l-0,-15.237l10.92,-10.912l12.264,0l0,10.554l12.313,12.305l15.155,0l0,-21.279l-9.153,-9.153l-0,-10.456l8.86,-8.861l0,-24.674l-12.859,-12.851l-26.344,26.344l-9.031,0l-27.468,-27.468l-21.531,0l-0,7.574l-9.878,9.878l-7.663,-0l-4.65,4.65l-4.854,4.544l-1.482,1.482l-1.124,-1.132l-48.388,0l-11.035,-11.034l-29.893,-0l-0,4.278l-8.471,8.47l0,17.684l-0.635,12.948l-10.334,10.334l-0,69.489l24.348,24.339Zm-19.376,-147.542l3.374,-0l-0,10.065l-6.66,-0l-0,-9.567l2.788,-0l0.498,-0.498Z" style="fill:#ededed;"/><path id="Sektor2" d="M327.216,319.116l-2.634,-0l-4.624,-4.624c0,-0 0,-2.062 0,-2.062c0,-0 -0.605,-0 -0.605,-0l-8.377,8.385l-15.468,0.035c-0,-0 9.784,-9.784 9.784,-9.784l-0,-7.769l6.724,-6.724c0,-0 2.271,2.262 2.271,2.262l5.832,-5.838l3.215,-0l-0.546,-0.546l-0.012,-1.191c0,0 -0.04,-4.13 -0.029,-6.261l-1.48,-1.441l-2.189,-2.06l6.081,-6.081l5.241,0.027l-0,-26.307l-19.186,-18.974l7.5,-6.629l7.899,-6.987l2.516,-2.215l-2.785,-2.785l-84.676,-0l3.518,-3.518l0,-4.658l-19.886,-0l-1.328,1.327l9.569,9.634l-0.025,-0l4.61,4.601l-17.232,17.232l22.175,22.174l-35.758,35.759l-0,25.016l23.779,0l10.717,10.725l18.51,0l15.578,15.579l60.604,-0l0,-13.111l-9.283,-0l-0,-13.191Zm19.063,-10.606l-1.255,-1.253l1.255,0l0,1.253Zm-15.879,-8.447l-2.776,-2.776l0,4.257l-0.82,0.819l2.768,2.768l0.828,-0l-0,-5.068Z" style="fill:#ededed;"/><path id="Sektor3" d="M453.698,226.139l-2.821,2.82l-12.668,0l-7.352,-7.352c-0,0 -0,-5.489 -0,-5.489c-0,-0 -8.228,-8.234 -8.228,-8.234l-11.067,-0c-0,-0 -4.838,-4.846 -4.838,-4.846l-35.657,0l-0,-9.758c-0,-0 6.904,-0 6.904,-0l0.628,-0.628l-6.684,-6.684l-6.018,0l-13.689,-13.689l-12.598,-0l-21.588,21.588l0.016,4.072l14.911,14.903l1.563,1.571l-8.2,7.24l-2.199,1.946l-7.59,6.711l14.601,14.444l-0.004,-3.371l10.804,0c0,0 0,6.562 0,6.562c0,0 16.069,16.069 16.069,16.069l10.617,0c-0,0 3.241,3.233 3.241,3.233l14.317,0l-0,8.669l-4.51,4.51l-28.256,-0l-19.378,-19.379l-0,14.416l1.442,0.008c0,0 0,13.428 0,13.428l2.777,2.777l0,5.959l-4.219,4.219l-0,1.78l15.879,-0l0,11.36l30.099,-0l11.034,11.034l47.941,0l9.552,-9.552l7.663,-0l7.753,-7.753l-0,-6.067l-11.035,0l-7.532,-7.532l-0,-31.442l12.125,-12.126l3.266,-3.257l6.857,-0l-0,-8.234l-13.152,-13.143l-0.776,-0.783Z" style="fill:#ededed;"/><path id="Sektor4" d="M151.163,418.97l-0,6.54l-13.433,0l-2.284,-2.283l-1.435,1.435l0,38.34l31.695,31.694l5.651,5.66l46.402,0l12.207,-12.207l26.93,-0l34.097,-34.097l0,-19.121l27.371,-27.378l7.54,-0l0,-36.63l10.962,-10.961l-0,-10.823l-62.103,0l-15.578,-15.578l-18.51,-0l-10.725,-10.725l-30.661,-0l-15.936,15.937l-0,30.163l22.997,22.998l-19.528,19.519l-27.493,0l-7.508,7.517l-0.658,-0Zm74.559,-68.032l-0,7.603l12.206,12.196l18.652,0l0,-7.284l-3.989,-3.989l-8.632,0c0,0 -8.526,-8.526 -8.526,-8.526l-9.711,-0Zm40.917,16.355l12.835,-12.836l-6.345,-6.345l-4.159,0l-12.197,12.197l0,6.984l9.866,-0Z" style="fill:#ededed;"/><path id="SektorCH" d="M152.982,163.609l-9.408,-0l-1.958,-1.959l-0,-8.174l3.152,-3.152l0.849,-0.847l1.783,0l-0,-2.14l-3.42,-3.417l-0.237,-0.239l-3.391,-0l-1.516,-1.777l0,-1.539l-5.047,-5.049l-6.203,0l-1.514,1.512l-3.554,-3.555l-1.565,0l-3.559,-3.559l-3.275,0l-5.612,5.613l0.004,1.058l3.54,3.538l-23.394,-0l0.915,-0.915l-0,-1.211l-5.17,0l-0.345,0.345l0,0.001l-0.678,0.679l-1.452,1.452l1.035,1.035l-4.266,4.266l-6.929,0l0,-2.206l-4.933,0l-5.72,5.723l5.547,-0l2.055,2.055l-15.539,15.54l-3.794,-0l0,7.488l-10.242,10.24l0,8.147l1.639,1.636l-5.875,5.875l-0,4.141l4.871,-0l4.81,-4.81l-1.804,-1.804l8.575,-8.574l8.696,0l3.398,3.4l-0.453,0.453l0.019,0l-2.347,2.448l-0,9.967l8.239,8.239l1.469,1.472l12.063,-0l3.174,-3.174l7.001,0l8.864,-8.864l0,-4.971l7.116,-7.117l2.807,0.003l-0,8.905l6.442,6.44l4.745,0l-0,4.431l3.12,3.123l0,3.531l5.636,0l-0,-3.364l-3.112,-3.112l-0,-4.539l8.851,-8.851l0,-9.349l3.387,-0l0.957,3.885l4.171,4.17l0.849,0.847l3.034,0l5.284,-5.284l6.717,6.717l2.372,-2.371l-1.059,-1.058l0,-4.323l-3.127,-3.129l0,-0.007l-0.099,-0.099l-0,-3.961l2.839,-2.837l3.188,-0l-0,2.743l3.201,3.199l3.94,0l-0,-5.532l-2.38,-2.379l0,-2.718l2.304,-2.304l-0,-6.415l-3.343,-3.34l-6.849,6.848l-2.348,0l-7.141,-7.14Z" style="fill:#ededed;fill-rule:nonzero;"/><path id="Gewässser" d="M367.119,446.014l-10.693,10.693l0,17.215l-6.971,6.971l0,3.339l-10.285,10.285l-2.125,-2.125l-3.152,-3.16l0,8.323l11.377,11.376l-7.655,7.655l12.41,12.411l0,-6.328l-4.47,-4.471l-0,-4.275l5.733,-5.733l-5.831,-5.839l-0,-5.578l17.378,-17.378l0,-16.939l10.636,-10.635l-0,-5.807l-6.352,0Zm33.942,64.863l-0,-4.536l7.907,-7.907l0,-10.928l4.292,-4.292l3.33,-0l4.243,-4.243l0,-7.541l3.665,-3.664l-0,-11.279l5.277,-5.277l5.643,0l0,4.275l-5.635,5.636c-0,-0 0.342,8.591 -0,8.933c-0.342,0.342 -4.259,4.259 -4.259,4.259l-0,5.359l3.575,3.575l-0,7.557l15.049,15.049l0,5.977l-3.274,0l0,-4.12l-16.8,-16.8l0,-5.188l-4.316,0l-3.371,3.372l-3.64,-0l-0,13.265l-5.497,5.497l-3.437,0l0,3.021l-2.752,0Zm6.686,-36.963l-4.634,4.626l-4.731,-0l-3.885,3.884l-3.64,0l-0,4.324l-8.486,8.486l-3.118,-0l-0,-15.229l3.086,0l-0,10.172l4.796,-4.805l0,-6.238l5.432,0l5.041,-5.041l3.453,0l3.371,-3.371l3.315,3.192Zm-270.698,-75.401l-16.809,0l-6.058,-6.05l-16.466,-0l-7.053,7.052l-9.747,0l-18.788,18.787l0,10.131l-6.913,6.913l-0,9.406l4.446,0l-0,-1.441l5.44,-5.44l-0,-4.569l12.582,-12.581l11.742,-0l8.185,-8.184l31.271,-0l10.057,10.057l9.308,-0l-0,-12.883l-11.197,-11.198Zm91.59,-41.181l10.497,10.489l14.528,-0l-0,-3.16l-2.281,-2.28l-8.632,-0l-8.526,-8.526l-5.586,-0l-0,3.477Zm46.711,-2.875l-3.429,-3.428l-1.742,-0l-10.489,10.489l-0,2.858l5.741,-0l9.919,-9.919Zm-148.578,-7.386l35.261,-35.269l-4.78,-4.781l-11.198,0l-32.411,32.411l0,7.639l13.128,-0Zm36.116,-19.43l-3.323,-3.323l7.02,-7.02l3.771,0l2.467,2.468l-7.915,7.923l-2.02,-0.048Zm146.876,-9.74l8.38,-8.388l4.731,0l0,3.771l2.915,2.915l6.637,-0l3.29,-3.29l4.707,0l0,14.039l5.261,-5.26l0,-9.65l-3.998,-3.991l-13.323,0l-3.461,-3.461l-4.447,0l4.251,-4.251l0,-4.421l-3.379,-0l-7.036,7.044l-2.272,-2.264l-3.811,3.811l-0,7.769l-5.644,5.643l7.199,-0.016Zm-141.037,-13.665l-4.528,-4.528l12.614,-12.614l7.476,0l0,6.173l-10.961,10.961l-4.601,0.008Zm164.384,-5.594l2.215,-2.215l0,-3.543l-2.776,-2.777l-0,-11.735l-6.19,-0.032l-3.094,3.094c-0,0 2.5,2.354 2.427,2.427c-0.074,0.073 -0,7.37 -0,7.37l6.832,6.832l0.586,0.579Zm0.929,-54.342l4.967,0l0,4.854l17.778,17.777l10.619,-0l3.241,3.233l12.606,-0l-0,4.544l-2.801,2.801l-25.84,0l-17.85,-17.85l-0,-5.668l-2.712,-2.712l-0.008,-6.979Zm137.267,-31.979l-7.623,-0l-4.267,-4.268l-10.448,0l-3.233,-3.233l0,-6.799l-4.373,-4.373l-20.546,-0l-8.144,-8.144l0,-4.666l-4.536,-4.544l-7.98,-0l-6.01,-6.018l-7.525,-0l13.006,13.005l3.176,-0l7.321,7.321l-10.709,-0l-0,-3.885l-7.899,0l-3.649,-3.648l-8.453,0l5.554,5.554l0,1.783l-5.79,5.79l-5.195,0l-0,3.926l33.95,-0l4.837,4.845l11.067,-0l9.935,9.943l0,5.489l5.644,5.643l10.252,0l2.875,-2.874l10.839,-0l2.036,-2.036l10.106,-0l-0,-4.593l-4.218,-4.218Z" style="fill:#a9d4e8;fill-rule:nonzero;"/><path id="Sektor1" d="M68.018,436.219l-0,2.86c-0,0 -5.44,5.44 -5.44,5.44l-0,3.15l-10.28,-0l-0,-13.531c-0,0 6.914,-6.913 6.914,-6.913l-0,-10.131l20.495,-20.496c0,0 9.748,0 9.748,0l7.052,-7.052l18.882,0l6.058,6.051l16.81,-0l12.906,12.906l-0,5.531l6.301,-6.302l27.493,-0l15.896,-15.896l-21.499,-21.491l0,-33.168l18.062,-18.063l6.271,0l-0,-26.515l34.251,-34.26l-22.174,-22.174l17.231,-17.232l-4.609,-4.601l-7.02,-7.02l-5.586,5.587l3.982,3.982l-16.409,16.409l-26.654,0l0,-8.485l-18.974,-0l-22.004,22.011l21.336,0l7.908,7.908l-59.774,59.773l-14.593,-0l0,28.804l-39.398,39.39l-0,31.336l6.303,6.295l-22.598,22.598l-0,15.929l18.738,-0l18.502,-18.502l-4.127,-4.128Zm42.71,-86.231l17.252,-0l38.177,-38.187l-7.696,-7.696l-13.614,-0l-34.119,34.119l-0,11.764Zm44.713,-25.67l6.21,6.21l4.436,0.108l10.86,-10.871l-5.383,-5.383l-6.187,-0l-9.936,9.936Zm4.633,-24.61l7.447,7.447l7.017,-0.012l12.668,-12.668l-0,-10.298l-11.601,0l-15.531,15.531Z" style="fill:#ededed;"/><path d="M92.144,177.297c0.788,-0 1.47,-0.112 2.044,-0.335c0.574,-0.223 1.073,-0.515 1.495,-0.876c0.423,-0.361 0.774,-0.769 1.054,-1.225c0.28,-0.455 0.51,-0.916 0.691,-1.381l3.66,1.381c-0.294,0.722 -0.679,1.429 -1.154,2.122c-0.474,0.694 -1.068,1.306 -1.78,1.838c-0.712,0.531 -1.559,0.961 -2.542,1.288c-0.983,0.328 -2.139,0.492 -3.468,0.492c-1.737,-0 -3.242,-0.259 -4.514,-0.776c-1.273,-0.518 -2.324,-1.239 -3.155,-2.165c-0.831,-0.926 -1.448,-2.025 -1.851,-3.297c-0.404,-1.272 -0.605,-2.663 -0.605,-4.173c-0,-1.566 0.201,-2.981 0.605,-4.244c0.403,-1.263 1.013,-2.338 1.83,-3.225c0.816,-0.888 1.849,-1.572 3.097,-2.051c1.249,-0.48 2.718,-0.719 4.408,-0.719c1.31,-0 2.457,0.137 3.439,0.413c0.983,0.275 1.833,0.662 2.55,1.16c0.717,0.499 1.31,1.087 1.78,1.766c0.47,0.679 0.838,1.427 1.104,2.243l-3.703,1.011c-0.133,-0.427 -0.337,-0.837 -0.613,-1.232c-0.275,-0.394 -0.624,-0.742 -1.046,-1.046c-0.423,-0.304 -0.919,-0.549 -1.489,-0.734c-0.569,-0.185 -1.215,-0.277 -1.936,-0.277c-1.016,-0 -1.89,0.163 -2.621,0.491c-0.731,0.327 -1.331,0.795 -1.801,1.403c-0.47,0.607 -0.817,1.336 -1.04,2.186c-0.223,0.85 -0.335,1.801 -0.335,2.855c0,1.045 0.112,2.001 0.335,2.87c0.223,0.869 0.572,1.616 1.047,2.243c0.474,0.627 1.084,1.116 1.83,1.467c0.745,0.351 1.64,0.527 2.684,0.527Zm24.638,3.019l0,-8.602l-8.744,0l-0,8.602l-4.201,-0l-0,-20.066l4.201,-0l-0,7.989l8.744,0l0,-7.989l4.201,-0l0,20.066l-4.201,-0Z" style="fill-rule:nonzero;"/><text x="268.763px" y="284.577px" style="font-family:'LiberationSans-Bold', 'Liberation Sans', sans-serif;font-weight:700;font-size:29.167px;">2</text><text x="388.248px" y="259.737px" style="font-family:'LiberationSans-Bold', 'Liberation Sans', sans-serif;font-weight:700;font-size:29.167px;">3</text><text x="391.177px" y="381.942px" style="font-family:'LiberationSans-Bold', 'Liberation Sans', sans-serif;font-weight:700;font-size:29.167px;">5</text><text x="229.685px" y="421.629px" style="font-family:'LiberationSans-Bold', 'Liberation Sans', sans-serif;font-weight:700;font-size:29.167px;">4</text><text x="138.036px" y="375.234px" style="font-family:'LiberationSans-Bold', 'Liberation Sans', sans-serif;font-weight:700;font-size:29.167px;">1</text></svg>