<?xml version="1.0" encoding="UTF-8" standalone="no"?><!DOCTYPE svg PUBLIC "-//W3C//DTD SVG 1.1//EN" "http://www.w3.org/Graphics/SVG/1.1/DTD/svg11.dtd"><svg width="100%" height="100%" viewBox="0 0 600 600" version="1.1" xmlns="http://www.w3.org/2000/svg" xmlns:xlink="http://www.w3.org/1999/xlink" xml:space="preserve" xmlns:serif="http://www.serif.com/" style="fill-rule:evenodd;clip-rule:evenodd;stroke-linejoin:round;stroke-miterlimit:2;"><path d="M367.119,396.378l-10.693,10.693l0,17.215l-6.971,6.971l0,3.339l-10.285,10.285l-2.125,-2.126l-3.152,-3.159l0,8.322l11.377,11.377l-7.655,7.655l12.41,12.411l0,-6.328l-4.47,-4.471l-0,-4.275l5.733,-5.733l-5.831,-5.839l-0,-5.578l17.378,-17.379l0,-16.938l10.636,-10.635l-0,-5.807l-6.352,0Zm33.942,64.863l-0,-4.536l7.907,-7.907l0,-10.929l4.292,-4.291l3.33,-0l4.243,-4.243l0,-7.541l3.665,-3.664l-0,-11.279l5.277,-5.277l5.643,-0l0,4.275l-5.635,5.635c-0,0 0.342,8.592 -0,8.934c-0.342,0.342 -4.259,4.259 -4.259,4.259l-0,5.358l3.575,3.575l-0,7.558l15.049,15.049l0,5.977l-3.274,0l0,-4.121l-16.8,-16.8l0,-5.187l-4.316,-0l-3.371,3.371l-3.64,0l-0,13.266l-5.497,5.497l-3.437,-0l0,3.021l-2.752,0Zm6.686,-36.963l-4.634,4.625l-4.731,0l-3.885,3.885l-3.64,-0l-0,4.324l-8.486,8.486l-3.118,-0l-0,-15.229l3.086,0l-0,10.171l4.796,-4.804l0,-6.238l5.432,-0l5.041,-5.041l3.453,0l3.371,-3.371l3.315,3.192Zm-270.698,-75.401l-16.809,0l-6.058,-6.05l-16.466,-0l-7.053,7.052l-9.747,-0l-18.788,18.787l0,10.13l-6.913,6.914l-0,9.406l4.446,0l-0,-1.441l5.44,-5.44l-0,-4.569l12.582,-12.581l11.742,-0l8.185,-8.185l31.271,0l10.057,10.058l9.308,-0l-0,-12.883l-11.197,-11.198Zm91.59,-41.181l10.497,10.488l14.528,0l-0,-3.159l-2.281,-2.28l-8.632,-0l-8.526,-8.527l-5.586,0l-0,3.478Zm46.711,-2.875l-3.429,-3.428l-1.742,-0l-10.489,10.488l-0,2.859l5.741,-0l9.919,-9.919Zm-148.578,-7.386l35.261,-35.27l-4.78,-4.78l-11.198,0l-32.411,32.411l0,7.639l13.128,-0Zm36.116,-19.431l-3.323,-3.322l7.02,-7.02l3.771,0l2.467,2.468l-7.915,7.923l-2.02,-0.049Zm146.876,-9.739l8.38,-8.388l4.731,-0l0,3.77l2.915,2.916l6.637,-0l3.29,-3.29l4.707,-0l0,14.039l5.261,-5.26l0,-9.651l-3.998,-3.99l-13.323,0l-3.461,-3.461l-4.447,0l4.251,-4.251l0,-4.422l-3.379,0l-7.036,7.044l-2.272,-2.263l-3.811,3.811l-0,7.769l-5.644,5.643l7.199,-0.016Zm-141.037,-13.665l-4.528,-4.528l12.614,-12.614l7.476,-0l0,6.173l-10.961,10.961l-4.601,0.008Zm164.384,-5.595l2.215,-2.215l0,-3.542l-2.776,-2.777l-0,-11.735l-6.19,-0.032l-3.094,3.094c-0,0 2.5,2.354 2.427,2.427c-0.074,0.073 -0,7.37 -0,7.37l6.832,6.832l0.586,0.578Zm0.929,-54.341l4.967,-0l0,4.853l17.778,17.778l10.619,-0l3.241,3.233l12.606,-0l-0,4.544l-2.801,2.801l-25.84,0l-17.85,-17.85l-0,-5.668l-2.712,-2.712l-0.008,-6.979Zm137.267,-31.98l-7.623,0l-4.267,-4.267l-10.448,0l-3.233,-3.233l0,-6.8l-4.373,-4.373l-20.546,0l-8.144,-8.143l0,-4.666l-4.536,-4.544l-7.98,-0l-6.01,-6.019l-7.525,0l13.006,13.006l3.176,-0l7.321,7.321l-10.709,-0l-0,-3.885l-7.899,0l-3.649,-3.648l-8.453,-0l5.554,5.554l0,1.783l-5.79,5.79l-5.195,0l-0,3.925l33.95,0l4.837,4.846l11.067,-0l9.935,9.943l0,5.489l5.644,5.643l10.252,0l2.875,-2.875l10.839,0l2.036,-2.035l10.106,-0l-0,-4.593l-4.218,-4.219Z" style="fill:#a9d4e8;fill-rule:nonzero;"/></svg>